# xmcd CD database file
#
# Track frame offsets:
#	150
#	13342
#	26651
#	39909
#	52830
#	65955
#	78654
#	91403
#	104169
#	116129
#	129480
#	142026
#	154793
#	167613
#	181277
#	193516
#	206485
#	218950
#	231681
#	245498
#	257852
#	270090
#	284417
#	297704
#	312718
#
# Disc length: 4351 seconds
#
# Revision: 0
# Processed by: cddbd v1.5.1PL0 Copyright (c) Steve Scherf et al.
# Submitted via: CDex 1.51
#
DISCID=8c10fd19
DTITLE=Blind Boy Fuller - Remastered 1935-1938 #B
DYEAR=2004
DGENRE=Blues
TTITLE0=When Your Gal Packs Up And Leaves 
TTITLE1=Mama Let Me Lay It On You 
TTITLE2=If You Don't Give Me What I Want 
TTITLE3=Boots And Shoes 
TTITLE4=Trucking My Blues Away No. 2 - (take 1) 
TTITLE5=Trucking My Blues Away No. 2 - (take 2) 
TTITLE6=Sweet Honey Hole 
TTITLE7=Untrue Blues 
TTITLE8=Tom Cat Blues 
TTITLE9=My Baby Don't Mean Me No Good 
TTITLE10=Been Your Dog 
TTITLE11=My Best Gal Gonna Leave Me 
TTITLE12=Wires All Down 
TTITLE13=Let Me Squeeze Your Lemon 
TTITLE14=Death Alley 
TTITLE15=Mamie - (take 1) 
TTITLE16=Mamie - (take 2) 
TTITLE17=New Oh Red! 
TTITLE18=If You See My Pigmeat 
TTITLE19=Stingy Mama 
TTITLE20=Why Don't My Baby Write To Me? 
TTITLE21=Some Day You're Gonna Be Sorry 
TTITLE22=You Never Can Tell 
TTITLE23=Put You Back in Jail 
TTITLE24=Walking and Looking Blues 
EXTD=YEAR: 2004
EXTT0=
EXTT1=
EXTT2=
EXTT3=
EXTT4=
EXTT5=
EXTT6=
EXTT7=
EXTT8=
EXTT9=
EXTT10=
EXTT11=
EXTT12=
EXTT13=
EXTT14=
EXTT15=
EXTT16=
EXTT17=
EXTT18=
EXTT19=
EXTT20=
EXTT21=
EXTT22=
EXTT23=
EXTT24=
PLAYORDER=
